<?xml version="1.0" standalone="no"?>
<!DOCTYPE svg PUBLIC "-//W3C//DTD SVG 1.1//EN" "http://www.w3.org/Graphics/SVG/1.1/DTD/svg11.dtd">
<!--Generator: Xara Designer (www.xara.com), SVG filter version: 6.7.0.0-->
<svg fill="none" fill-rule="evenodd" stroke="black" stroke-width="0.501" stroke-linejoin="bevel" stroke-miterlimit="10" font-family="Times New Roman" font-size="16" style="font-variant-ligatures:none" xmlns:xlink="http://www.w3.org/1999/xlink" xmlns="http://www.w3.org/2000/svg" version="1.1" overflow="visible" width="87.868pt" height="35.25pt" viewBox="-69.75 -808.5 87.868 35.25">
 <defs>
	</defs>
 <g id="Layer 1" transform="scale(1 -1)">
  <path d="M -69.75,808.5 L 17.284,808.5 L 17.284,773.25 L -69.75,773.25 L -69.75,808.5 Z" stroke="none" stroke-linejoin="miter" marker-start="none" marker-end="none"/>
  <g id="Group" fill-rule="nonzero" stroke-linejoin="round" stroke-linecap="round" stroke="none" stroke-width="0.437">
   <g id="Group_1">
    <g id="Group_2">
     <path d="M -63.159,783.507 C -64.013,783.513 -64.701,783.607 -65.225,783.789 C -65.749,783.971 -66.13,784.251 -66.369,784.63 C -66.608,785.008 -66.727,785.488 -66.727,786.068 L -66.727,788.723 C -66.727,789.11 -66.81,789.42 -66.975,789.653 C -67.14,789.887 -67.382,790.057 -67.7,790.166 C -68.019,790.274 -68.412,790.328 -68.878,790.328 L -68.878,791.941 C -68.412,791.941 -68.019,791.994 -67.7,792.099 C -67.382,792.204 -67.14,792.375 -66.975,792.611 C -66.81,792.847 -66.727,793.156 -66.727,793.537 L -66.727,796.209 C -66.727,796.796 -66.605,797.276 -66.36,797.652 C -66.115,798.028 -65.73,798.305 -65.203,798.484 C -64.677,798.664 -63.996,798.753 -63.159,798.753 L -63.159,797.217 C -63.523,797.205 -63.836,797.154 -64.098,797.063 C -64.36,796.972 -64.559,796.823 -64.696,796.615 C -64.832,796.407 -64.9,796.124 -64.9,795.766 L -64.9,793.205 C -64.9,792.641 -65.061,792.192 -65.383,791.856 C -65.704,791.52 -66.184,791.298 -66.821,791.19 L -66.821,791.087 C -66.178,790.991 -65.697,790.773 -65.378,790.435 C -65.06,790.096 -64.9,789.645 -64.9,789.081 L -64.9,786.495 C -64.9,786.137 -64.832,785.853 -64.696,785.646 C -64.559,785.438 -64.36,785.29 -64.098,785.202 C -63.836,785.113 -63.523,785.066 -63.159,785.061 L -63.159,783.507 Z" fill="#6d78f2" marker-start="none" marker-end="none"/>
     <path d="M -56.976,782.355 C -57.357,782.355 -57.692,782.373 -57.979,782.41 C -58.266,782.447 -58.515,782.489 -58.726,782.534 L -58.726,785.155 C -58.544,785.121 -58.35,785.082 -58.145,785.04 C -57.941,784.997 -57.719,784.975 -57.48,784.975 C -57.076,784.975 -56.761,785.058 -56.536,785.223 C -56.312,785.388 -56.153,785.636 -56.063,785.966 C -55.971,786.296 -55.926,786.708 -55.926,787.203 L -55.926,798.753 L -52.537,798.753 L -52.537,787.494 C -52.537,786.242 -52.725,785.24 -53.1,784.489 C -53.476,783.738 -53.997,783.194 -54.663,782.858 C -55.328,782.523 -56.1,782.355 -56.976,782.355 Z" fill="#e6eaf0" marker-start="none" marker-end="none"/>
     <path d="M -37.512,793.427 C -37.512,793.33 -37.534,793.232 -37.577,793.132 C -37.619,793.032 -37.675,792.936 -37.743,792.842 C -37.811,792.748 -37.887,792.659 -37.969,792.577 C -38.052,792.495 -38.136,792.428 -38.221,792.377 C -38.42,792.246 -38.703,792.13 -39.07,792.031 C -39.437,791.931 -39.891,791.881 -40.432,791.881 C -40.864,791.881 -41.3,791.937 -41.738,792.048 C -42.176,792.159 -42.597,792.343 -43.001,792.599 C -42.871,792.399 -42.787,792.209 -42.75,792.026 C -42.713,791.844 -42.694,791.628 -42.694,791.378 C -42.694,790.928 -42.808,790.45 -43.036,789.944 C -43.257,789.432 -43.545,788.956 -43.898,788.518 C -44.251,788.08 -44.623,787.716 -45.016,787.425 C -45.238,787.26 -45.481,787.117 -45.746,786.994 C -46.011,786.872 -46.288,786.772 -46.578,786.695 C -46.868,786.619 -47.17,786.562 -47.483,786.525 C -47.796,786.488 -48.112,786.469 -48.431,786.469 C -48.652,786.469 -48.869,786.541 -49.079,786.683 C -49.29,786.825 -49.478,786.999 -49.643,787.203 C -49.808,787.408 -49.94,787.627 -50.04,787.861 C -50.139,788.094 -50.189,788.305 -50.189,788.493 C -50.189,788.953 -50.128,789.396 -50.006,789.82 C -49.883,790.244 -49.718,790.654 -49.511,791.049 C -49.303,791.445 -49.062,791.831 -48.789,792.21 C -48.516,792.588 -48.226,792.965 -47.918,793.341 C -47.747,793.552 -47.553,793.758 -47.334,793.96 C -47.115,794.162 -46.885,794.343 -46.647,794.502 C -46.407,794.661 -46.166,794.791 -45.921,794.89 C -45.676,794.99 -45.443,795.04 -45.221,795.04 C -45.039,795.04 -44.882,795.014 -44.751,794.963 C -44.621,794.912 -44.497,794.839 -44.38,794.745 C -44.263,794.652 -44.144,794.534 -44.022,794.391 C -43.899,794.249 -43.758,794.089 -43.599,793.913 C -43.548,793.862 -43.407,793.787 -43.177,793.687 C -42.946,793.587 -42.673,793.49 -42.357,793.397 C -42.041,793.303 -41.709,793.22 -41.362,793.149 C -41.015,793.078 -40.7,793.042 -40.415,793.042 C -40.13,793.042 -39.868,793.052 -39.63,793.072 C -39.39,793.092 -39.158,793.125 -38.934,793.17 C -38.709,793.216 -38.486,793.279 -38.264,793.358 C -38.042,793.438 -37.803,793.535 -37.547,793.648 C -37.524,793.563 -37.512,793.489 -37.512,793.427 Z M -43.889,791.378 C -43.884,791.537 -43.895,791.718 -43.923,791.92 C -43.952,792.122 -44.002,792.312 -44.073,792.492 C -44.144,792.671 -44.238,792.818 -44.354,792.931 C -44.471,793.045 -44.615,793.091 -44.786,793.068 C -45.047,793.17 -45.264,793.278 -45.434,793.392 C -45.605,793.506 -45.736,793.563 -45.827,793.563 C -45.895,793.563 -45.969,793.542 -46.049,793.499 C -46.129,793.456 -46.211,793.398 -46.296,793.324 C -46.382,793.25 -46.469,793.163 -46.557,793.064 C -46.645,792.964 -46.732,792.86 -46.817,792.752 C -46.988,792.53 -47.146,792.328 -47.291,792.146 C -47.436,791.964 -47.573,791.783 -47.701,791.604 C -47.829,791.425 -47.952,791.237 -48.072,791.041 C -48.192,790.844 -48.311,790.624 -48.431,790.379 C -48.482,790.277 -48.527,790.154 -48.567,790.012 C -48.607,789.87 -48.641,789.723 -48.67,789.572 C -48.698,789.422 -48.719,789.271 -48.734,789.12 C -48.748,788.969 -48.755,788.834 -48.755,788.714 C -48.755,788.64 -48.729,788.551 -48.678,788.445 C -48.627,788.34 -48.56,788.238 -48.478,788.138 C -48.395,788.039 -48.301,787.955 -48.196,787.886 C -48.091,787.818 -47.987,787.784 -47.884,787.784 C -47.594,787.784 -47.347,787.797 -47.142,787.822 C -46.937,787.848 -46.748,787.893 -46.574,787.959 C -46.4,788.024 -46.225,788.114 -46.049,788.228 C -45.872,788.342 -45.668,788.49 -45.434,788.672 C -45.321,788.757 -45.208,788.857 -45.097,788.97 C -44.986,789.084 -44.876,789.205 -44.768,789.333 C -44.66,789.461 -44.558,789.592 -44.461,789.726 C -44.364,789.86 -44.273,789.992 -44.188,790.123 C -44.131,790.208 -44.083,790.314 -44.043,790.439 C -44.003,790.564 -43.972,790.689 -43.949,790.814 C -43.926,790.939 -43.911,791.053 -43.902,791.156 C -43.894,791.258 -43.889,791.332 -43.889,791.378 Z" fill="#6d78f2" marker-start="none" marker-end="none"/>
     <path d="M -36.352,793.473 C -35.791,793.516 -35.262,793.568 -34.767,793.628 C -34.276,793.682 -33.868,793.71 -33.541,793.71 C -33.127,793.71 -32.865,793.672 -32.756,793.595 C -32.647,793.519 -32.593,793.386 -32.593,793.195 C -32.593,792.754 -32.9,792.514 -33.516,792.476 C -34.306,792.427 -35.033,792.359 -35.698,792.271 C -36.363,792.184 -36.721,792.112 -36.773,792.055 C -36.824,791.998 -36.989,791.349 -37.267,790.11 C -37.545,788.87 -37.684,788.065 -37.684,787.695 C -37.684,787.096 -37.605,786.697 -37.447,786.498 C -37.289,786.299 -37.052,786.2 -36.736,786.2 C -36.268,786.2 -35.617,786.551 -34.783,787.254 C -34.462,787.542 -34.214,787.687 -34.039,787.687 C -33.805,787.687 -33.688,787.562 -33.688,787.311 C -33.688,786.919 -34.065,786.411 -34.82,785.787 C -35.574,785.163 -36.347,784.851 -37.137,784.851 C -38.455,784.851 -39.114,785.628 -39.114,787.18 C -39.114,787.741 -38.978,788.61 -38.706,789.787 C -38.439,790.958 -38.305,791.661 -38.305,791.896 C -38.305,791.977 -38.371,792.018 -38.501,792.018 L -39.351,791.944 C -40.049,791.945 -40.397,792.222 -40.397,792.778 C -40.397,793.094 -40.236,793.252 -39.915,793.252 L -38.232,793.252 C -38.117,793.252 -38.016,793.304 -37.929,793.407 C -37.842,793.511 -37.714,793.858 -37.545,794.449 C -37.376,795.04 -37.226,795.625 -37.096,796.202 C -36.965,796.774 -36.709,797.06 -36.327,797.06 C -36.093,797.06 -35.911,796.979 -35.78,796.815 C -35.649,796.652 -35.584,796.499 -35.584,796.358 C -35.584,796.281 -35.682,795.892 -35.878,795.189 L -36.352,793.473 Z" fill="#6d78f2" marker-start="none" marker-end="none"/>
     <path d="M -21.865,790.063 C -21.865,789.386 -22.036,788.744 -22.378,788.138 C -22.719,787.532 -23.25,787.041 -23.97,786.666 C -24.69,786.29 -25.619,786.102 -26.757,786.102 C -27.326,786.102 -27.825,786.128 -28.255,786.179 C -28.685,786.23 -29.084,786.314 -29.454,786.431 C -29.824,786.548 -30.208,786.7 -30.607,786.888 L -30.607,789.892 C -29.93,789.551 -29.247,789.29 -28.558,789.111 C -27.87,788.932 -27.246,788.842 -26.688,788.842 C -26.353,788.842 -26.078,788.882 -25.865,788.962 C -25.651,789.042 -25.493,789.151 -25.391,789.291 C -25.288,789.43 -25.237,789.591 -25.237,789.773 C -25.237,789.989 -25.313,790.173 -25.463,790.324 C -25.615,790.474 -25.855,790.632 -26.185,790.797 C -26.515,790.962 -26.95,791.167 -27.491,791.412 C -27.952,791.628 -28.369,791.85 -28.741,792.078 C -29.114,792.305 -29.433,792.566 -29.698,792.859 C -29.962,793.152 -30.166,793.495 -30.308,793.887 C -30.45,794.28 -30.521,794.744 -30.521,795.279 C -30.521,796.081 -30.324,796.754 -29.928,797.298 C -29.533,797.841 -28.98,798.25 -28.272,798.523 C -27.563,798.796 -26.745,798.933 -25.818,798.933 C -25.004,798.933 -24.272,798.841 -23.62,798.659 C -22.968,798.477 -22.383,798.269 -21.865,798.036 L -22.898,795.433 C -23.433,795.677 -23.96,795.872 -24.478,796.017 C -24.995,796.163 -25.476,796.235 -25.92,796.235 C -26.211,796.235 -26.448,796.199 -26.633,796.128 C -26.818,796.057 -26.955,795.962 -27.043,795.842 C -27.131,795.723 -27.175,795.586 -27.175,795.433 C -27.175,795.239 -27.1,795.066 -26.949,794.912 C -26.798,794.758 -26.545,794.592 -26.189,794.412 C -25.834,794.233 -25.348,794.001 -24.734,793.717 C -24.125,793.444 -23.607,793.149 -23.18,792.833 C -22.753,792.517 -22.427,792.139 -22.203,791.698 C -21.978,791.257 -21.865,790.712 -21.865,790.063 Z" fill="#e6eaf0" marker-start="none" marker-end="none"/>
     <path d="M -8.259,792.53 C -8.258,791.569 -8.374,790.693 -8.604,789.905 C -8.835,789.117 -9.195,788.438 -9.684,787.869 C -10.173,787.3 -10.802,786.864 -11.571,786.559 C -12.339,786.255 -13.258,786.102 -14.328,786.102 C -15.375,786.102 -16.281,786.255 -17.047,786.559 C -17.812,786.864 -18.442,787.299 -18.937,787.865 C -19.433,788.431 -19.8,789.11 -20.039,789.901 C -20.278,790.692 -20.397,791.574 -20.397,792.547 C -20.397,793.845 -20.182,794.973 -19.753,795.932 C -19.323,796.891 -18.658,797.633 -17.759,798.16 C -16.86,798.686 -15.711,798.95 -14.311,798.95 C -12.888,798.95 -11.731,798.685 -10.841,798.156 C -9.95,797.626 -9.297,796.881 -8.882,795.919 C -8.466,794.957 -8.258,793.828 -8.259,792.53 Z M -16.846,792.53 C -16.846,791.779 -16.761,791.133 -16.59,790.592 C -16.419,790.052 -16.149,789.636 -15.779,789.346 C -15.409,789.056 -14.925,788.911 -14.328,788.911 C -13.708,788.911 -13.214,789.056 -12.847,789.346 C -12.48,789.636 -12.215,790.052 -12.053,790.592 C -11.891,791.133 -11.809,791.779 -11.81,792.53 C -11.809,793.657 -11.997,794.548 -12.373,795.202 C -12.749,795.857 -13.395,796.184 -14.311,796.184 C -14.92,796.184 -15.41,796.036 -15.783,795.74 C -16.156,795.444 -16.427,795.023 -16.594,794.476 C -16.762,793.93 -16.846,793.281 -16.846,792.53 Z" fill="#e6eaf0" marker-start="none" marker-end="none"/>
     <path d="M 5.877,786.273 L 1.456,786.273 L -3.103,795.066 L -3.18,795.066 C -3.151,794.798 -3.126,794.476 -3.103,794.101 C -3.08,793.725 -3.06,793.343 -3.043,792.953 C -3.026,792.563 -3.018,792.211 -3.018,791.898 L -3.018,786.273 L -6.005,786.273 L -6.005,798.753 L -1.601,798.753 L 2.941,790.08 L 2.992,790.08 C 2.975,790.353 2.958,790.671 2.941,791.032 C 2.924,791.393 2.908,791.759 2.894,792.129 C 2.88,792.499 2.873,792.826 2.873,793.111 L 2.873,798.753 L 5.877,798.753 L 5.877,786.273 Z" fill="#e6eaf0" marker-start="none" marker-end="none"/>
     <path d="M 12.407,783.507 L 12.407,785.061 C 12.766,785.072 13.074,785.122 13.333,785.21 C 13.592,785.298 13.792,785.446 13.931,785.654 C 14.071,785.862 14.14,786.145 14.14,786.503 L 14.14,789.073 C 14.14,789.636 14.302,790.087 14.627,790.426 C 14.951,790.765 15.429,790.982 16.061,791.079 L 16.061,791.181 C 15.424,791.29 14.944,791.511 14.622,791.847 C 14.301,792.183 14.14,792.633 14.14,793.196 L 14.14,795.774 C 14.14,796.133 14.072,796.416 13.935,796.623 C 13.799,796.831 13.601,796.98 13.342,797.072 C 13.083,797.162 12.772,797.211 12.407,797.217 L 12.407,798.753 C 13.255,798.753 13.941,798.662 14.464,798.48 C 14.988,798.298 15.369,798.019 15.608,797.643 C 15.847,797.268 15.967,796.787 15.967,796.201 L 15.967,793.546 C 15.967,793.159 16.049,792.847 16.214,792.611 C 16.379,792.375 16.622,792.204 16.94,792.099 C 17.259,791.994 17.652,791.941 18.118,791.941 L 18.118,790.328 C 17.652,790.328 17.259,790.274 16.94,790.166 C 16.622,790.057 16.379,789.887 16.214,789.653 C 16.049,789.42 15.967,789.113 15.967,788.731 L 15.967,786.06 C 15.967,785.479 15.845,784.999 15.6,784.621 C 15.355,784.243 14.971,783.962 14.447,783.78 C 13.924,783.598 13.244,783.507 12.407,783.507 Z" fill="#6d78f2" marker-start="none" marker-end="none"/>
    </g>
   </g>
  </g>
 </g>
</svg>
