<?xml version="1.0" standalone="no"?>
<!DOCTYPE svg PUBLIC "-//W3C//DTD SVG 1.1//EN" "http://www.w3.org/Graphics/SVG/1.1/DTD/svg11.dtd">
<!--Generator: Xara Designer (www.xara.com), SVG filter version: 6.7.0.0-->
<svg fill="none" fill-rule="evenodd" stroke="black" stroke-width="0.501" stroke-linejoin="bevel" stroke-miterlimit="10" font-family="Times New Roman" font-size="16" style="font-variant-ligatures:none" xmlns:xlink="http://www.w3.org/1999/xlink" xmlns="http://www.w3.org/2000/svg" version="1.1" overflow="visible" width="182.283pt" height="47.929pt" viewBox="223.108 -492.935 182.283 47.929">
 <defs>
	</defs>
 <g id="Layer 1" transform="scale(1 -1)">
  <rect x="232.392" y="445.007" width="163.717" height="47.929" rx="6.11" ry="6.11" stroke="none" stroke-width="0.992" stroke-linecap="round" stroke-linejoin="miter"/>
  <g id="Group" fill-rule="nonzero" stroke-linejoin="round" stroke-linecap="round" stroke="none" stroke-width="0.994">
   <g id="Group_1">
    <g id="Group_2">
     <path d="M 235.41,453.125 C 233.574,453.137 232.092,453.34 230.966,453.731 C 229.84,454.123 229.02,454.726 228.506,455.539 C 227.992,456.354 227.735,457.385 227.735,458.633 L 227.735,464.344 C 227.735,465.176 227.558,465.843 227.202,466.345 C 226.847,466.847 226.327,467.214 225.641,467.446 C 224.956,467.679 224.112,467.795 223.108,467.795 L 223.108,471.266 C 224.112,471.266 224.956,471.379 225.641,471.605 C 226.327,471.832 226.847,472.199 227.202,472.707 C 227.558,473.215 227.735,473.879 227.735,474.699 L 227.735,480.446 C 227.735,481.707 227.998,482.741 228.524,483.549 C 229.051,484.357 229.88,484.954 231.012,485.339 C 232.145,485.725 233.61,485.918 235.41,485.917 L 235.41,482.612 C 234.626,482.588 233.953,482.478 233.39,482.282 C 232.827,482.086 232.398,481.765 232.104,481.318 C 231.811,480.871 231.664,480.262 231.664,479.491 L 231.664,473.983 C 231.664,472.771 231.318,471.804 230.626,471.082 C 229.935,470.36 228.904,469.882 227.533,469.65 L 227.533,469.429 C 228.916,469.221 229.95,468.753 230.636,468.025 C 231.321,467.297 231.664,466.326 231.664,465.114 L 231.664,459.551 C 231.664,458.78 231.811,458.172 232.104,457.724 C 232.398,457.278 232.827,456.959 233.39,456.77 C 233.953,456.58 234.626,456.479 235.41,456.467 L 235.41,453.125 Z" fill="#747eec" marker-start="none" marker-end="none"/>
     <path d="M 248.106,451.601 C 247.432,451.601 246.841,451.641 246.334,451.721 C 245.826,451.8 245.388,451.908 245.021,452.042 L 245.021,455.733 C 245.413,455.634 245.835,455.549 246.288,455.475 C 246.741,455.402 247.224,455.365 247.738,455.365 C 248.412,455.365 249.024,455.494 249.574,455.751 C 250.125,456.008 250.563,456.473 250.887,457.146 C 251.212,457.82 251.374,458.768 251.374,459.992 L 251.374,485.917 L 255.78,485.917 L 255.78,460.139 C 255.78,458.144 255.462,456.519 254.826,455.264 C 254.189,454.009 253.296,453.085 252.145,452.491 C 250.994,451.898 249.648,451.601 248.106,451.601 Z" fill="#1f2328" marker-start="none" marker-end="none"/>
     <path d="M 289.037,474.46 C 289.037,474.252 288.991,474.041 288.899,473.827 C 288.807,473.613 288.687,473.405 288.541,473.203 C 288.394,473.001 288.232,472.811 288.055,472.634 C 287.877,472.456 287.696,472.312 287.513,472.202 C 287.084,471.921 286.475,471.673 285.686,471.458 C 284.896,471.244 283.92,471.137 282.757,471.137 C 281.827,471.137 280.891,471.256 279.948,471.495 C 279.005,471.734 278.1,472.129 277.231,472.679 C 277.512,472.251 277.692,471.841 277.772,471.449 C 277.852,471.057 277.892,470.593 277.892,470.054 C 277.892,469.087 277.647,468.058 277.157,466.969 C 276.68,465.868 276.062,464.846 275.303,463.903 C 274.544,462.96 273.742,462.177 272.897,461.553 C 272.42,461.198 271.897,460.888 271.327,460.626 C 270.758,460.362 270.162,460.148 269.538,459.983 C 268.914,459.818 268.264,459.695 267.591,459.616 C 266.918,459.536 266.239,459.497 265.553,459.497 C 265.076,459.497 264.611,459.65 264.158,459.956 C 263.705,460.262 263.301,460.635 262.946,461.075 C 262.591,461.516 262.306,461.987 262.092,462.489 C 261.878,462.991 261.771,463.444 261.771,463.848 C 261.771,464.839 261.902,465.791 262.165,466.703 C 262.429,467.615 262.784,468.496 263.23,469.347 C 263.677,470.198 264.194,471.03 264.782,471.844 C 265.37,472.658 265.994,473.469 266.655,474.277 C 267.022,474.729 267.441,475.173 267.912,475.608 C 268.383,476.043 268.877,476.431 269.39,476.774 C 269.905,477.117 270.425,477.395 270.951,477.609 C 271.478,477.823 271.98,477.93 272.457,477.93 C 272.849,477.93 273.185,477.875 273.467,477.765 C 273.748,477.655 274.015,477.499 274.265,477.297 C 274.516,477.095 274.773,476.841 275.037,476.535 C 275.3,476.229 275.603,475.886 275.945,475.507 C 276.056,475.397 276.358,475.235 276.854,475.02 C 277.35,474.806 277.937,474.598 278.617,474.396 C 279.296,474.194 280.01,474.016 280.756,473.863 C 281.503,473.71 282.182,473.634 282.794,473.634 C 283.406,473.634 283.969,473.656 284.483,473.698 C 284.998,473.741 285.496,473.812 285.98,473.909 C 286.463,474.008 286.944,474.142 287.421,474.314 C 287.898,474.485 288.412,474.693 288.963,474.938 C 289.012,474.754 289.037,474.595 289.037,474.46 Z M 275.321,470.054 C 275.333,470.397 275.309,470.785 275.248,471.22 C 275.186,471.654 275.079,472.064 274.926,472.45 C 274.773,472.836 274.571,473.151 274.321,473.395 C 274.069,473.64 273.76,473.738 273.393,473.689 C 272.83,473.909 272.365,474.142 271.998,474.387 C 271.631,474.632 271.349,474.754 271.153,474.754 C 271.006,474.754 270.847,474.708 270.676,474.617 C 270.504,474.525 270.327,474.399 270.144,474.24 C 269.96,474.081 269.773,473.894 269.583,473.68 C 269.394,473.465 269.207,473.242 269.023,473.01 C 268.656,472.533 268.317,472.098 268.004,471.706 C 267.692,471.315 267.399,470.926 267.123,470.54 C 266.848,470.154 266.582,469.751 266.324,469.329 C 266.067,468.906 265.81,468.432 265.553,467.905 C 265.443,467.686 265.345,467.422 265.259,467.116 C 265.174,466.81 265.1,466.495 265.039,466.171 C 264.978,465.846 264.932,465.522 264.902,465.198 C 264.871,464.873 264.856,464.582 264.856,464.325 C 264.856,464.166 264.911,463.973 265.021,463.747 C 265.131,463.52 265.274,463.3 265.452,463.086 C 265.63,462.872 265.832,462.691 266.058,462.544 C 266.285,462.397 266.508,462.324 266.728,462.324 C 267.353,462.324 267.885,462.351 268.326,462.407 C 268.766,462.461 269.173,462.559 269.547,462.7 C 269.92,462.841 270.297,463.034 270.676,463.279 C 271.055,463.524 271.496,463.842 271.998,464.233 C 272.242,464.417 272.484,464.631 272.723,464.876 C 272.962,465.121 273.198,465.381 273.43,465.657 C 273.663,465.932 273.883,466.213 274.091,466.501 C 274.299,466.788 274.495,467.073 274.678,467.354 C 274.801,467.538 274.905,467.765 274.991,468.034 C 275.076,468.303 275.144,468.572 275.193,468.842 C 275.242,469.111 275.275,469.356 275.294,469.576 C 275.312,469.797 275.321,469.956 275.321,470.054 Z" fill="#747eec" marker-start="none" marker-end="none"/>
     <path d="M 291.533,474.561 C 292.74,474.654 293.877,474.766 294.944,474.895 C 295.999,475.012 296.877,475.07 297.58,475.07 C 298.471,475.07 299.033,474.988 299.268,474.824 C 299.502,474.66 299.62,474.373 299.619,473.963 C 299.62,473.014 298.958,472.498 297.633,472.416 C 295.934,472.311 294.37,472.164 292.94,471.977 C 291.51,471.789 290.74,471.634 290.628,471.511 C 290.517,471.388 290.163,469.993 289.565,467.327 C 288.967,464.661 288.668,462.93 288.668,462.133 C 288.668,460.844 288.838,459.985 289.178,459.558 C 289.518,459.13 290.027,458.916 290.707,458.916 C 291.715,458.916 293.115,459.672 294.908,461.184 C 295.6,461.805 296.133,462.115 296.508,462.115 C 297.012,462.115 297.264,461.846 297.264,461.307 C 297.264,460.463 296.452,459.37 294.829,458.028 C 293.206,456.687 291.545,456.016 289.846,456.016 C 287.01,456.016 285.592,457.686 285.592,461.025 C 285.592,462.233 285.885,464.102 286.471,466.633 C 287.045,469.152 287.332,470.664 287.332,471.168 C 287.332,471.344 287.192,471.432 286.91,471.432 L 285.082,471.273 C 283.582,471.274 282.832,471.871 282.832,473.066 C 282.832,473.746 283.178,474.086 283.869,474.086 L 287.49,474.086 C 287.737,474.086 287.953,474.197 288.141,474.42 C 288.328,474.642 288.604,475.39 288.967,476.661 C 289.33,477.933 289.653,479.189 289.934,480.432 C 290.215,481.662 290.766,482.278 291.586,482.277 C 292.09,482.278 292.482,482.102 292.764,481.75 C 293.045,481.398 293.186,481.07 293.186,480.766 C 293.186,480.602 292.975,479.764 292.553,478.252 L 291.533,474.561 Z" fill="#747eec" marker-start="none" marker-end="none"/>
     <path d="M 321.262,466.381 C 321.262,464.79 320.873,463.419 320.096,462.269 C 319.319,461.118 318.205,460.237 316.754,459.625 C 315.304,459.013 313.575,458.707 311.567,458.707 C 310.588,458.707 309.651,458.762 308.758,458.872 C 307.864,458.982 307.023,459.145 306.233,459.359 C 305.444,459.573 304.725,459.833 304.076,460.139 L 304.076,464.288 C 305.166,463.811 306.384,463.38 307.73,462.994 C 309.076,462.609 310.447,462.416 311.843,462.415 C 312.981,462.416 313.927,462.566 314.679,462.866 C 315.432,463.165 315.992,463.594 316.359,464.151 C 316.727,464.708 316.91,465.359 316.91,466.106 C 316.91,466.902 316.696,467.575 316.267,468.126 C 315.839,468.676 315.194,469.181 314.33,469.64 C 313.468,470.099 312.387,470.593 311.09,471.119 C 310.208,471.474 309.367,471.878 308.565,472.331 C 307.763,472.783 307.051,473.316 306.426,473.928 C 305.802,474.54 305.309,475.265 304.948,476.103 C 304.588,476.942 304.407,477.931 304.406,479.069 C 304.407,480.587 304.771,481.884 305.499,482.961 C 306.227,484.039 307.256,484.865 308.583,485.44 C 309.912,486.015 311.464,486.303 313.238,486.303 C 314.646,486.303 315.971,486.156 317.213,485.862 C 318.456,485.569 319.677,485.153 320.876,484.614 L 319.481,481.07 C 318.379,481.523 317.311,481.884 316.277,482.153 C 315.243,482.423 314.187,482.558 313.11,482.558 C 312.18,482.558 311.39,482.417 310.741,482.135 C 310.092,481.854 309.599,481.459 309.263,480.951 C 308.926,480.443 308.758,479.84 308.758,479.142 C 308.758,478.359 308.951,477.701 309.337,477.168 C 309.722,476.636 310.322,476.149 311.136,475.709 C 311.95,475.268 313,474.779 314.285,474.24 C 315.766,473.628 317.024,472.986 318.058,472.312 C 319.092,471.639 319.885,470.834 320.436,469.898 C 320.986,468.961 321.262,467.789 321.262,466.381 Z" fill="#1f2328" marker-start="none" marker-end="none"/>
     <path d="M 350.272,472.533 C 350.272,470.464 350.012,468.582 349.491,466.887 C 348.971,465.191 348.191,463.735 347.15,462.517 C 346.11,461.299 344.806,460.359 343.239,459.698 C 341.673,459.037 339.836,458.707 337.731,458.707 C 335.589,458.707 333.732,459.037 332.159,459.698 C 330.586,460.359 329.282,461.302 328.248,462.526 C 327.213,463.75 326.439,465.213 325.925,466.914 C 325.411,468.616 325.154,470.501 325.154,472.569 C 325.154,475.335 325.61,477.75 326.522,479.813 C 327.434,481.875 328.823,483.479 330.69,484.623 C 332.557,485.768 334.916,486.34 337.768,486.34 C 340.559,486.34 342.879,485.771 344.727,484.632 C 346.575,483.494 347.961,481.893 348.886,479.831 C 349.809,477.768 350.272,475.336 350.272,472.533 Z M 329.781,472.533 C 329.781,470.464 330.063,468.674 330.626,467.162 C 331.189,465.65 332.055,464.488 333.223,463.674 C 334.392,462.86 335.895,462.453 337.731,462.453 C 339.579,462.453 341.085,462.86 342.248,463.674 C 343.411,464.488 344.267,465.65 344.818,467.162 C 345.369,468.674 345.645,470.464 345.644,472.533 C 345.645,475.678 345.018,478.142 343.763,479.923 C 342.508,481.704 340.51,482.594 337.768,482.594 C 335.931,482.594 334.423,482.19 333.242,481.382 C 332.061,480.575 331.189,479.421 330.626,477.921 C 330.063,476.422 329.781,474.626 329.781,472.533 Z" fill="#1f2328" marker-start="none" marker-end="none"/>
     <path d="M 378.438,459.074 L 373.021,459.074 L 359.875,480.501 L 359.709,480.501 C 359.758,479.779 359.804,479.014 359.847,478.206 C 359.89,477.398 359.927,476.566 359.957,475.709 C 359.988,474.852 360.016,473.983 360.04,473.101 L 360.04,459.074 L 356.037,459.074 L 356.037,485.917 L 361.417,485.917 L 374.545,464.637 L 374.674,464.637 C 374.649,465.262 374.618,465.978 374.582,466.786 C 374.545,467.594 374.511,468.429 374.48,469.292 C 374.45,470.154 374.428,470.99 374.416,471.798 L 374.416,485.917 L 378.438,485.917 L 378.438,459.074 Z" fill="#1f2328" marker-start="none" marker-end="none"/>
     <path d="M 393.108,453.125 L 393.108,456.467 C 393.879,456.491 394.543,456.598 395.1,456.788 C 395.657,456.978 396.086,457.296 396.385,457.743 C 396.686,458.189 396.836,458.798 396.835,459.57 L 396.835,465.096 C 396.836,466.308 397.184,467.278 397.882,468.007 C 398.58,468.735 399.608,469.203 400.967,469.411 L 400.967,469.632 C 399.596,469.864 398.564,470.341 397.873,471.064 C 397.181,471.786 396.836,472.753 396.835,473.965 L 396.835,479.51 C 396.836,480.281 396.689,480.89 396.395,481.336 C 396.101,481.783 395.676,482.104 395.118,482.301 C 394.562,482.496 393.892,482.6 393.108,482.612 L 393.108,485.917 C 394.932,485.918 396.407,485.722 397.533,485.33 C 398.659,484.939 399.479,484.338 399.993,483.531 C 400.507,482.723 400.765,481.688 400.765,480.428 L 400.765,474.717 C 400.765,473.885 400.942,473.215 401.297,472.707 C 401.652,472.199 402.173,471.832 402.858,471.605 C 403.544,471.379 404.388,471.266 405.391,471.266 L 405.391,467.795 C 404.388,467.795 403.544,467.679 402.858,467.446 C 402.173,467.214 401.652,466.847 401.297,466.345 C 400.942,465.843 400.765,465.182 400.765,464.362 L 400.765,458.615 C 400.765,457.366 400.501,456.335 399.975,455.521 C 399.449,454.707 398.623,454.104 397.496,453.712 C 396.37,453.321 394.907,453.125 393.108,453.125 Z" fill="#747eec" marker-start="none" marker-end="none"/>
    </g>
   </g>
  </g>
 </g>
</svg>
