<?xml version="1.0" standalone="no"?>
<!DOCTYPE svg PUBLIC "-//W3C//DTD SVG 1.1//EN" "http://www.w3.org/Graphics/SVG/1.1/DTD/svg11.dtd">
<!--Generator: Xara Designer (www.xara.com), SVG filter version: 6.7.0.0-->
<svg fill="none" fill-rule="evenodd" stroke="black" stroke-width="0.501" stroke-linejoin="bevel" stroke-miterlimit="10" font-family="Times New Roman" font-size="16" style="font-variant-ligatures:none" xmlns:xlink="http://www.w3.org/1999/xlink" xmlns="http://www.w3.org/2000/svg" version="1.1" overflow="visible" width="182.283pt" height="47.929pt" viewBox="223.109 -663.936 182.283 47.929">
 <defs>
	</defs>
 <g id="Layer 1" transform="scale(1 -1)">
  <rect x="232.393" y="616.008" width="163.717" height="47.929" rx="6.11" ry="6.11" stroke="none" stroke-width="0.992" stroke-linecap="round" stroke-linejoin="miter"/>
  <g id="Group" fill-rule="nonzero" stroke-linejoin="round" stroke-linecap="round" stroke="none" stroke-width="0.94">
   <g id="Group_1">
    <g id="Group_2">
     <path d="M 235.411,624.126 C 233.575,624.138 232.093,624.341 230.967,624.732 C 229.841,625.124 229.021,625.727 228.507,626.54 C 227.993,627.355 227.736,628.386 227.736,629.634 L 227.736,635.345 C 227.736,636.177 227.559,636.844 227.203,637.346 C 226.848,637.848 226.328,638.215 225.642,638.447 C 224.957,638.68 224.113,638.796 223.109,638.796 L 223.109,642.267 C 224.113,642.267 224.957,642.38 225.642,642.606 C 226.328,642.833 226.848,643.2 227.203,643.708 C 227.559,644.216 227.736,644.88 227.736,645.7 L 227.736,651.447 C 227.736,652.708 227.999,653.742 228.525,654.55 C 229.052,655.358 229.881,655.955 231.013,656.34 C 232.146,656.726 233.611,656.919 235.411,656.918 L 235.411,653.613 C 234.627,653.589 233.954,653.479 233.391,653.283 C 232.828,653.087 232.399,652.766 232.105,652.319 C 231.812,651.872 231.665,651.263 231.665,650.492 L 231.665,644.984 C 231.665,643.772 231.319,642.805 230.627,642.083 C 229.936,641.361 228.905,640.883 227.534,640.651 L 227.534,640.43 C 228.917,640.222 229.951,639.754 230.637,639.026 C 231.322,638.298 231.665,637.327 231.665,636.115 L 231.665,630.552 C 231.665,629.781 231.812,629.173 232.105,628.725 C 232.399,628.279 232.828,627.96 233.391,627.771 C 233.954,627.581 234.627,627.48 235.411,627.468 L 235.411,624.126 Z" fill="#737bd6" marker-start="none" marker-end="none"/>
     <path d="M 248.107,622.602 C 247.433,622.602 246.842,622.642 246.335,622.722 C 245.827,622.801 245.389,622.909 245.022,623.043 L 245.022,626.734 C 245.414,626.635 245.836,626.55 246.289,626.476 C 246.742,626.403 247.225,626.366 247.739,626.366 C 248.413,626.366 249.025,626.495 249.575,626.752 C 250.126,627.009 250.564,627.474 250.888,628.147 C 251.213,628.821 251.375,629.769 251.375,630.993 L 251.375,656.918 L 255.781,656.918 L 255.781,631.14 C 255.781,629.145 255.463,627.52 254.827,626.265 C 254.19,625.01 253.297,624.086 252.146,623.492 C 250.995,622.899 249.649,622.602 248.107,622.602 Z" fill="#e6eaf0" marker-start="none" marker-end="none"/>
     <path d="M 289.038,645.461 C 289.038,645.253 288.992,645.042 288.9,644.828 C 288.808,644.614 288.688,644.406 288.542,644.204 C 288.395,644.002 288.233,643.812 288.056,643.635 C 287.878,643.457 287.697,643.313 287.514,643.203 C 287.085,642.922 286.476,642.674 285.687,642.459 C 284.897,642.245 283.921,642.138 282.758,642.138 C 281.828,642.138 280.892,642.257 279.949,642.496 C 279.006,642.735 278.101,643.13 277.232,643.68 C 277.513,643.252 277.693,642.842 277.773,642.45 C 277.853,642.058 277.893,641.594 277.893,641.055 C 277.893,640.088 277.648,639.059 277.158,637.97 C 276.681,636.869 276.063,635.847 275.304,634.904 C 274.545,633.961 273.743,633.178 272.898,632.554 C 272.421,632.199 271.898,631.889 271.328,631.627 C 270.759,631.363 270.163,631.149 269.539,630.984 C 268.915,630.819 268.265,630.696 267.592,630.617 C 266.919,630.537 266.24,630.498 265.554,630.498 C 265.077,630.498 264.612,630.651 264.159,630.957 C 263.706,631.263 263.302,631.636 262.947,632.076 C 262.592,632.517 262.307,632.988 262.093,633.49 C 261.879,633.992 261.772,634.445 261.772,634.849 C 261.772,635.84 261.903,636.792 262.166,637.704 C 262.43,638.616 262.785,639.497 263.231,640.348 C 263.678,641.199 264.195,642.031 264.783,642.845 C 265.371,643.659 265.995,644.47 266.656,645.278 C 267.023,645.73 267.442,646.174 267.913,646.609 C 268.384,647.044 268.878,647.432 269.391,647.775 C 269.906,648.118 270.426,648.396 270.952,648.61 C 271.479,648.824 271.981,648.931 272.458,648.931 C 272.85,648.931 273.186,648.876 273.468,648.766 C 273.749,648.656 274.016,648.5 274.266,648.298 C 274.517,648.096 274.774,647.842 275.038,647.536 C 275.301,647.23 275.604,646.887 275.946,646.508 C 276.057,646.398 276.359,646.236 276.855,646.021 C 277.351,645.807 277.938,645.599 278.618,645.397 C 279.297,645.195 280.011,645.017 280.757,644.864 C 281.504,644.711 282.183,644.635 282.795,644.635 C 283.407,644.635 283.97,644.657 284.484,644.699 C 284.999,644.742 285.497,644.813 285.981,644.91 C 286.464,645.009 286.945,645.143 287.422,645.315 C 287.899,645.486 288.413,645.694 288.964,645.939 C 289.013,645.755 289.038,645.596 289.038,645.461 Z M 275.322,641.055 C 275.334,641.398 275.31,641.786 275.249,642.221 C 275.187,642.655 275.08,643.065 274.927,643.451 C 274.774,643.837 274.572,644.152 274.322,644.396 C 274.07,644.641 273.761,644.739 273.394,644.69 C 272.831,644.91 272.366,645.143 271.999,645.388 C 271.632,645.633 271.35,645.755 271.154,645.755 C 271.007,645.755 270.848,645.709 270.677,645.618 C 270.505,645.526 270.328,645.4 270.145,645.241 C 269.961,645.082 269.774,644.895 269.584,644.681 C 269.395,644.466 269.208,644.243 269.024,644.011 C 268.657,643.534 268.318,643.099 268.005,642.707 C 267.693,642.316 267.4,641.927 267.124,641.541 C 266.849,641.155 266.583,640.752 266.325,640.33 C 266.068,639.907 265.811,639.433 265.554,638.906 C 265.444,638.687 265.346,638.423 265.26,638.117 C 265.175,637.811 265.101,637.496 265.04,637.172 C 264.979,636.847 264.933,636.523 264.903,636.199 C 264.872,635.874 264.857,635.583 264.857,635.326 C 264.857,635.167 264.912,634.974 265.022,634.748 C 265.132,634.521 265.275,634.301 265.453,634.087 C 265.631,633.873 265.833,633.692 266.059,633.545 C 266.286,633.398 266.509,633.325 266.729,633.325 C 267.354,633.325 267.886,633.352 268.327,633.408 C 268.767,633.462 269.174,633.56 269.548,633.701 C 269.921,633.842 270.298,634.035 270.677,634.28 C 271.056,634.525 271.497,634.843 271.999,635.234 C 272.243,635.418 272.485,635.632 272.724,635.877 C 272.963,636.122 273.199,636.382 273.431,636.658 C 273.664,636.933 273.884,637.214 274.092,637.502 C 274.3,637.789 274.496,638.074 274.679,638.355 C 274.802,638.539 274.906,638.766 274.992,639.035 C 275.077,639.304 275.145,639.573 275.194,639.843 C 275.243,640.112 275.276,640.357 275.295,640.577 C 275.313,640.798 275.322,640.957 275.322,641.055 Z" fill="#737bd6" marker-start="none" marker-end="none"/>
     <path d="M 291.534,645.562 C 292.741,645.655 293.878,645.767 294.945,645.896 C 296,646.013 296.878,646.071 297.581,646.071 C 298.472,646.071 299.034,645.989 299.269,645.825 C 299.503,645.661 299.621,645.374 299.62,644.964 C 299.621,644.015 298.959,643.499 297.634,643.417 C 295.935,643.312 294.371,643.165 292.941,642.978 C 291.511,642.79 290.741,642.635 290.629,642.512 C 290.518,642.389 290.164,640.994 289.566,638.328 C 288.968,635.662 288.669,633.931 288.669,633.134 C 288.669,631.845 288.839,630.986 289.179,630.559 C 289.519,630.131 290.028,629.917 290.708,629.917 C 291.716,629.917 293.116,630.673 294.909,632.185 C 295.601,632.806 296.134,633.116 296.509,633.116 C 297.013,633.116 297.265,632.847 297.265,632.308 C 297.265,631.464 296.453,630.371 294.83,629.029 C 293.207,627.688 291.546,627.017 289.847,627.017 C 287.011,627.017 285.593,628.687 285.593,632.026 C 285.593,633.234 285.886,635.103 286.472,637.634 C 287.046,640.153 287.333,641.665 287.333,642.169 C 287.333,642.345 287.193,642.433 286.911,642.433 L 285.083,642.274 C 283.583,642.275 282.833,642.872 282.833,644.067 C 282.833,644.747 283.179,645.087 283.87,645.087 L 287.491,645.087 C 287.738,645.087 287.954,645.198 288.142,645.421 C 288.329,645.643 288.605,646.391 288.968,647.662 C 289.331,648.934 289.654,650.19 289.935,651.433 C 290.216,652.663 290.767,653.279 291.587,653.278 C 292.091,653.279 292.483,653.103 292.765,652.751 C 293.046,652.399 293.187,652.071 293.187,651.767 C 293.187,651.603 292.976,650.765 292.554,649.253 L 291.534,645.562 Z" fill="#737bd6" marker-start="none" marker-end="none"/>
     <path d="M 321.263,637.382 C 321.263,635.791 320.874,634.42 320.097,633.27 C 319.32,632.119 318.206,631.238 316.755,630.626 C 315.305,630.014 313.576,629.708 311.568,629.708 C 310.589,629.708 309.652,629.763 308.759,629.873 C 307.865,629.983 307.024,630.146 306.234,630.36 C 305.445,630.574 304.726,630.834 304.077,631.14 L 304.077,635.289 C 305.167,634.812 306.385,634.381 307.731,633.995 C 309.077,633.61 310.448,633.417 311.844,633.416 C 312.982,633.417 313.928,633.567 314.68,633.867 C 315.433,634.166 315.993,634.595 316.36,635.152 C 316.728,635.709 316.911,636.36 316.911,637.107 C 316.911,637.903 316.697,638.576 316.268,639.127 C 315.84,639.677 315.195,640.182 314.331,640.641 C 313.469,641.1 312.388,641.594 311.091,642.12 C 310.209,642.475 309.368,642.879 308.566,643.332 C 307.764,643.784 307.052,644.317 306.427,644.929 C 305.803,645.541 305.31,646.266 304.949,647.104 C 304.589,647.943 304.408,648.932 304.407,650.07 C 304.408,651.588 304.772,652.885 305.5,653.962 C 306.228,655.04 307.257,655.866 308.584,656.441 C 309.913,657.016 311.465,657.304 313.239,657.304 C 314.647,657.304 315.972,657.157 317.214,656.863 C 318.457,656.57 319.678,656.154 320.877,655.615 L 319.482,652.071 C 318.38,652.524 317.312,652.885 316.278,653.154 C 315.244,653.424 314.188,653.559 313.111,653.559 C 312.181,653.559 311.391,653.418 310.742,653.136 C 310.093,652.855 309.6,652.46 309.264,651.952 C 308.927,651.444 308.759,650.841 308.759,650.143 C 308.759,649.36 308.952,648.702 309.338,648.169 C 309.723,647.637 310.323,647.15 311.137,646.71 C 311.951,646.269 313.001,645.78 314.286,645.241 C 315.767,644.629 317.025,643.987 318.059,643.313 C 319.093,642.64 319.886,641.835 320.437,640.899 C 320.987,639.962 321.263,638.79 321.263,637.382 Z" fill="#e6eaf0" marker-start="none" marker-end="none"/>
     <path d="M 350.273,643.534 C 350.273,641.465 350.013,639.583 349.492,637.888 C 348.972,636.192 348.192,634.736 347.151,633.518 C 346.111,632.3 344.807,631.36 343.24,630.699 C 341.674,630.038 339.837,629.708 337.732,629.708 C 335.59,629.708 333.733,630.038 332.16,630.699 C 330.587,631.36 329.283,632.303 328.249,633.527 C 327.214,634.751 326.44,636.214 325.926,637.915 C 325.412,639.617 325.155,641.502 325.155,643.57 C 325.155,646.336 325.611,648.751 326.523,650.814 C 327.435,652.876 328.824,654.48 330.691,655.624 C 332.558,656.769 334.917,657.341 337.769,657.341 C 340.56,657.341 342.88,656.772 344.728,655.633 C 346.576,654.495 347.962,652.894 348.887,650.832 C 349.81,648.769 350.273,646.337 350.273,643.534 Z M 329.782,643.534 C 329.782,641.465 330.064,639.675 330.627,638.163 C 331.19,636.651 332.056,635.489 333.224,634.675 C 334.393,633.861 335.896,633.454 337.732,633.454 C 339.58,633.454 341.086,633.861 342.249,634.675 C 343.412,635.489 344.268,636.651 344.819,638.163 C 345.37,639.675 345.646,641.465 345.645,643.534 C 345.646,646.679 345.019,649.143 343.764,650.924 C 342.509,652.705 340.511,653.595 337.769,653.595 C 335.932,653.595 334.424,653.191 333.243,652.383 C 332.062,651.576 331.19,650.422 330.627,648.922 C 330.064,647.423 329.782,645.627 329.782,643.534 Z" fill="#e6eaf0" marker-start="none" marker-end="none"/>
     <path d="M 378.439,630.075 L 373.022,630.075 L 359.876,651.502 L 359.71,651.502 C 359.759,650.78 359.805,650.015 359.848,649.207 C 359.891,648.399 359.928,647.567 359.958,646.71 C 359.989,645.853 360.017,644.984 360.041,644.102 L 360.041,630.075 L 356.038,630.075 L 356.038,656.918 L 361.418,656.918 L 374.546,635.638 L 374.675,635.638 C 374.65,636.263 374.619,636.979 374.583,637.787 C 374.546,638.595 374.512,639.43 374.481,640.293 C 374.451,641.155 374.429,641.991 374.417,642.799 L 374.417,656.918 L 378.439,656.918 L 378.439,630.075 Z" fill="#e6eaf0" marker-start="none" marker-end="none"/>
     <path d="M 393.109,624.126 L 393.109,627.468 C 393.88,627.492 394.544,627.599 395.101,627.789 C 395.658,627.979 396.087,628.297 396.386,628.744 C 396.687,629.19 396.837,629.799 396.836,630.571 L 396.836,636.097 C 396.837,637.309 397.185,638.279 397.883,639.008 C 398.581,639.736 399.609,640.204 400.968,640.412 L 400.968,640.633 C 399.597,640.865 398.565,641.342 397.874,642.065 C 397.182,642.787 396.837,643.754 396.836,644.966 L 396.836,650.511 C 396.837,651.282 396.69,651.891 396.396,652.337 C 396.102,652.784 395.677,653.105 395.119,653.302 C 394.563,653.497 393.893,653.601 393.109,653.613 L 393.109,656.918 C 394.933,656.919 396.408,656.723 397.534,656.331 C 398.66,655.94 399.48,655.339 399.994,654.532 C 400.508,653.724 400.766,652.689 400.766,651.429 L 400.766,645.718 C 400.766,644.886 400.943,644.216 401.298,643.708 C 401.653,643.2 402.174,642.833 402.859,642.606 C 403.545,642.38 404.389,642.267 405.392,642.267 L 405.392,638.796 C 404.389,638.796 403.545,638.68 402.859,638.447 C 402.174,638.215 401.653,637.848 401.298,637.346 C 400.943,636.844 400.766,636.183 400.766,635.363 L 400.766,629.616 C 400.766,628.367 400.502,627.336 399.976,626.522 C 399.45,625.708 398.624,625.105 397.497,624.713 C 396.371,624.322 394.908,624.126 393.109,624.126 Z" fill="#737bd6" marker-start="none" marker-end="none"/>
    </g>
   </g>
  </g>
 </g>
</svg>
