<?xml version="1.0" standalone="no"?>
<!DOCTYPE svg PUBLIC "-//W3C//DTD SVG 1.1//EN" "http://www.w3.org/Graphics/SVG/1.1/DTD/svg11.dtd">
<!--Generator: Xara Designer (www.xara.com), SVG filter version: 6.7.0.0-->
<svg fill="none" fill-rule="evenodd" stroke="black" stroke-width="0.501" stroke-linejoin="bevel" stroke-miterlimit="10" font-family="Times New Roman" font-size="16" style="font-variant-ligatures:none" xmlns:xlink="http://www.w3.org/1999/xlink" xmlns="http://www.w3.org/2000/svg" version="1.1" overflow="visible" width="163.717pt" height="47.929pt" viewBox="232.971 -382.453 163.717 47.929">
 <defs>
	</defs>
 <g id="Layer 1" transform="scale(1 -1)">
  <rect x="232.972" y="334.525" width="163.717" height="47.929" rx="6.11" ry="6.11" fill="#333333" stroke="none" stroke-width="0.992" stroke-linecap="round" stroke-linejoin="miter"/>
  <g id="Group" fill-rule="nonzero" stroke-linejoin="round" stroke-linecap="round" stroke="none" stroke-width="0.667">
   <g id="Group_1">
    <g id="Group_2">
     <path d="M 261.941,347.859 C 260.709,347.867 259.715,348.003 258.959,348.265 C 258.204,348.528 257.654,348.933 257.309,349.478 C 256.965,350.025 256.792,350.716 256.792,351.553 L 256.792,355.385 C 256.792,355.943 256.673,356.39 256.434,356.727 C 256.196,357.064 255.847,357.31 255.387,357.465 C 254.928,357.622 254.362,357.7 253.688,357.7 L 253.688,360.028 C 254.362,360.028 254.928,360.104 255.387,360.256 C 255.847,360.408 256.196,360.654 256.434,360.995 C 256.673,361.336 256.792,361.781 256.792,362.332 L 256.792,366.186 C 256.792,367.032 256.968,367.726 257.321,368.268 C 257.675,368.81 258.231,369.211 258.991,369.469 C 259.751,369.728 260.733,369.858 261.941,369.857 L 261.941,367.64 C 261.415,367.623 260.963,367.55 260.586,367.418 C 260.208,367.287 259.921,367.071 259.723,366.771 C 259.526,366.472 259.428,366.063 259.428,365.546 L 259.428,361.851 C 259.428,361.038 259.196,360.389 258.732,359.905 C 258.268,359.421 257.577,359.1 256.657,358.944 L 256.657,358.796 C 257.584,358.656 258.278,358.343 258.738,357.854 C 259.197,357.366 259.428,356.715 259.428,355.901 L 259.428,352.169 C 259.428,351.652 259.526,351.245 259.723,350.943 C 259.921,350.645 260.208,350.431 260.586,350.304 C 260.963,350.176 261.415,350.108 261.941,350.101 L 261.941,347.859 Z" fill="#747eec" marker-start="none" marker-end="none"/>
     <path d="M 270.458,346.836 C 270.006,346.836 269.609,346.863 269.269,346.917 C 268.928,346.969 268.634,347.042 268.388,347.132 L 268.388,349.608 C 268.651,349.542 268.934,349.484 269.238,349.435 C 269.542,349.386 269.866,349.361 270.211,349.361 C 270.663,349.361 271.074,349.447 271.443,349.62 C 271.812,349.793 272.106,350.104 272.323,350.556 C 272.541,351.009 272.65,351.644 272.65,352.465 L 272.65,369.857 L 275.605,369.857 L 275.605,352.564 C 275.605,351.225 275.392,350.136 274.966,349.293 C 274.538,348.451 273.939,347.832 273.168,347.433 C 272.395,347.035 271.492,346.836 270.458,346.836 Z" fill="#e6eaf0" marker-start="none" marker-end="none"/>
     <path d="M 297.916,362.171 C 297.916,362.031 297.885,361.89 297.823,361.746 C 297.761,361.603 297.681,361.463 297.583,361.327 C 297.485,361.192 297.376,361.064 297.257,360.946 C 297.138,360.826 297.016,360.73 296.893,360.656 C 296.606,360.467 296.198,360.301 295.667,360.157 C 295.138,360.013 294.483,359.942 293.703,359.942 C 293.079,359.942 292.451,360.022 291.818,360.181 C 291.186,360.342 290.579,360.607 289.996,360.976 C 290.185,360.689 290.305,360.414 290.359,360.151 C 290.412,359.888 290.439,359.577 290.439,359.215 C 290.439,358.566 290.275,357.876 289.947,357.146 C 289.626,356.407 289.212,355.721 288.703,355.089 C 288.193,354.456 287.655,353.931 287.088,353.512 C 286.768,353.274 286.417,353.066 286.035,352.89 C 285.654,352.713 285.254,352.57 284.835,352.459 C 284.416,352.348 283.981,352.266 283.529,352.213 C 283.077,352.159 282.622,352.133 282.162,352.133 C 281.841,352.133 281.53,352.236 281.226,352.441 C 280.922,352.646 280.651,352.897 280.413,353.192 C 280.175,353.488 279.984,353.804 279.84,354.14 C 279.697,354.477 279.624,354.781 279.624,355.052 C 279.624,355.717 279.713,356.355 279.889,356.967 C 280.066,357.579 280.304,358.17 280.604,358.741 C 280.903,359.312 281.25,359.87 281.645,360.416 C 282.039,360.962 282.458,361.506 282.901,362.049 C 283.147,362.352 283.428,362.649 283.744,362.941 C 284.06,363.233 284.391,363.493 284.736,363.724 C 285.081,363.953 285.43,364.14 285.783,364.283 C 286.136,364.427 286.473,364.499 286.793,364.499 C 287.056,364.499 287.282,364.461 287.471,364.388 C 287.66,364.314 287.839,364.21 288.006,364.074 C 288.174,363.939 288.347,363.769 288.524,363.563 C 288.701,363.358 288.904,363.127 289.133,362.874 C 289.208,362.799 289.41,362.691 289.743,362.547 C 290.075,362.403 290.469,362.264 290.925,362.128 C 291.381,361.992 291.86,361.873 292.36,361.77 C 292.862,361.668 293.317,361.617 293.728,361.617 C 294.138,361.617 294.516,361.631 294.861,361.66 C 295.206,361.688 295.541,361.736 295.865,361.801 C 296.189,361.868 296.512,361.958 296.832,362.073 C 297.151,362.187 297.497,362.327 297.866,362.491 C 297.899,362.368 297.916,362.262 297.916,362.171 Z M 288.714,359.215 C 288.723,359.445 288.706,359.705 288.666,359.998 C 288.624,360.289 288.552,360.564 288.45,360.823 C 288.347,361.082 288.212,361.293 288.044,361.457 C 287.875,361.621 287.667,361.687 287.422,361.653 C 287.043,361.801 286.732,361.958 286.485,362.122 C 286.239,362.287 286.05,362.368 285.918,362.368 C 285.82,362.368 285.713,362.337 285.599,362.276 C 285.483,362.215 285.364,362.13 285.241,362.024 C 285.118,361.916 284.993,361.791 284.865,361.648 C 284.739,361.504 284.613,361.354 284.49,361.199 C 284.243,360.878 284.016,360.587 283.806,360.324 C 283.596,360.061 283.4,359.8 283.215,359.541 C 283.03,359.282 282.852,359.012 282.679,358.729 C 282.507,358.445 282.334,358.127 282.162,357.773 C 282.088,357.627 282.022,357.45 281.965,357.244 C 281.908,357.039 281.858,356.828 281.817,356.61 C 281.776,356.392 281.745,356.175 281.725,355.957 C 281.705,355.74 281.694,355.544 281.694,355.372 C 281.694,355.266 281.731,355.136 281.805,354.984 C 281.879,354.832 281.975,354.684 282.094,354.541 C 282.214,354.397 282.349,354.276 282.5,354.177 C 282.653,354.078 282.803,354.03 282.95,354.03 C 283.37,354.03 283.726,354.048 284.022,354.085 C 284.317,354.122 284.591,354.187 284.842,354.282 C 285.091,354.376 285.344,354.506 285.599,354.67 C 285.853,354.835 286.149,355.048 286.485,355.311 C 286.649,355.434 286.812,355.577 286.971,355.742 C 287.132,355.906 287.29,356.081 287.446,356.265 C 287.603,356.45 287.75,356.638 287.889,356.831 C 288.029,357.024 288.16,357.215 288.284,357.404 C 288.365,357.528 288.435,357.679 288.493,357.86 C 288.55,358.041 288.596,358.221 288.629,358.403 C 288.661,358.583 288.684,358.747 288.696,358.894 C 288.709,359.043 288.714,359.15 288.714,359.215 Z" fill="#747eec" marker-start="none" marker-end="none"/>
     <path d="M 299.59,362.239 C 300.4,362.301 301.163,362.377 301.879,362.463 C 302.586,362.541 303.175,362.581 303.647,362.581 C 304.245,362.581 304.622,362.525 304.78,362.415 C 304.936,362.305 305.016,362.113 305.015,361.837 C 305.016,361.2 304.571,360.855 303.682,360.8 C 302.542,360.729 301.494,360.631 300.534,360.505 C 299.575,360.379 299.058,360.275 298.983,360.192 C 298.909,360.11 298.671,359.174 298.27,357.385 C 297.869,355.597 297.669,354.436 297.669,353.901 C 297.669,353.036 297.783,352.46 298.01,352.174 C 298.238,351.887 298.58,351.744 299.036,351.744 C 299.712,351.744 300.651,352.251 301.854,353.265 C 302.319,353.682 302.676,353.889 302.927,353.889 C 303.265,353.889 303.434,353.709 303.434,353.347 C 303.434,352.781 302.89,352.048 301.802,351.147 C 300.713,350.248 299.598,349.798 298.459,349.798 C 296.556,349.798 295.605,350.919 295.605,353.158 C 295.605,353.968 295.802,355.222 296.195,356.92 C 296.58,358.61 296.772,359.625 296.772,359.963 C 296.772,360.08 296.678,360.139 296.489,360.139 L 295.263,360.033 C 294.256,360.034 293.753,360.434 293.753,361.235 C 293.753,361.692 293.985,361.92 294.449,361.92 L 296.878,361.92 C 297.044,361.92 297.189,361.994 297.315,362.144 C 297.44,362.293 297.625,362.795 297.869,363.647 C 298.112,364.501 298.329,365.344 298.518,366.177 C 298.706,367.002 299.075,367.416 299.626,367.415 C 299.964,367.416 300.227,367.298 300.416,367.062 C 300.604,366.826 300.699,366.605 300.699,366.401 C 300.699,366.291 300.557,365.729 300.274,364.715 L 299.59,362.239 Z" fill="#747eec" marker-start="none" marker-end="none"/>
     <path d="M 319.533,356.751 C 319.533,355.684 319.273,354.764 318.752,353.993 C 318.231,353.22 317.483,352.629 316.51,352.219 C 315.537,351.809 314.377,351.603 313.03,351.603 C 312.373,351.603 311.744,351.64 311.145,351.714 C 310.545,351.788 309.981,351.897 309.452,352.04 C 308.923,352.184 308.44,352.358 308.005,352.564 L 308.005,355.347 C 308.736,355.027 309.553,354.738 310.456,354.479 C 311.359,354.221 312.278,354.091 313.215,354.09 C 313.978,354.091 314.613,354.192 315.118,354.394 C 315.623,354.594 315.999,354.882 316.244,355.255 C 316.491,355.629 316.614,356.066 316.614,356.567 C 316.614,357.101 316.471,357.553 316.182,357.922 C 315.896,358.29 315.463,358.63 314.883,358.937 C 314.305,359.245 313.58,359.577 312.71,359.93 C 312.118,360.168 311.554,360.439 311.016,360.743 C 310.478,361.046 310,361.404 309.581,361.814 C 309.162,362.225 308.832,362.711 308.589,363.273 C 308.348,363.836 308.226,364.499 308.226,365.263 C 308.226,366.281 308.471,367.151 308.959,367.874 C 309.447,368.597 310.137,369.151 311.028,369.537 C 311.92,369.922 312.961,370.116 314.151,370.116 C 315.095,370.116 315.984,370.017 316.817,369.82 C 317.651,369.624 318.47,369.344 319.274,368.983 L 318.339,366.605 C 317.599,366.909 316.884,367.151 316.19,367.332 C 315.496,367.513 314.788,367.603 314.065,367.603 C 313.441,367.603 312.911,367.509 312.476,367.32 C 312.04,367.131 311.71,366.866 311.484,366.525 C 311.258,366.184 311.145,365.78 311.145,365.311 C 311.145,364.787 311.275,364.345 311.534,363.987 C 311.792,363.631 312.195,363.304 312.74,363.009 C 313.287,362.713 313.991,362.385 314.853,362.024 C 315.847,361.613 316.691,361.182 317.384,360.73 C 318.078,360.279 318.61,359.739 318.979,359.111 C 319.349,358.482 319.533,357.696 319.533,356.751 Z" fill="#e6eaf0" marker-start="none" marker-end="none"/>
     <path d="M 338.995,360.878 C 338.995,359.49 338.82,358.228 338.471,357.09 C 338.122,355.953 337.599,354.976 336.901,354.159 C 336.202,353.342 335.328,352.711 334.276,352.268 C 333.226,351.825 331.994,351.603 330.582,351.603 C 329.145,351.603 327.899,351.825 326.844,352.268 C 325.788,352.711 324.913,353.344 324.221,354.165 C 323.526,354.986 323.007,355.968 322.662,357.109 C 322.317,358.251 322.145,359.515 322.145,360.903 C 322.145,362.758 322.451,364.378 323.062,365.762 C 323.674,367.145 324.606,368.221 325.858,368.989 C 327.11,369.757 328.693,370.141 330.607,370.141 C 332.479,370.141 334.035,369.759 335.275,368.995 C 336.515,368.231 337.445,367.157 338.065,365.774 C 338.684,364.39 338.995,362.759 338.995,360.878 Z M 325.249,360.878 C 325.249,359.49 325.438,358.29 325.816,357.275 C 326.193,356.261 326.774,355.482 327.558,354.935 C 328.342,354.389 329.35,354.116 330.582,354.116 C 331.821,354.116 332.832,354.389 333.612,354.935 C 334.392,355.482 334.966,356.261 335.336,357.275 C 335.705,358.29 335.891,359.49 335.89,360.878 C 335.891,362.988 335.47,364.641 334.628,365.836 C 333.787,367.031 332.446,367.628 330.607,367.628 C 329.374,367.628 328.363,367.357 327.571,366.815 C 326.778,366.273 326.193,365.499 325.816,364.493 C 325.438,363.487 325.249,362.282 325.249,360.878 Z" fill="#e6eaf0" marker-start="none" marker-end="none"/>
     <path d="M 357.89,351.849 L 354.256,351.849 L 345.437,366.224 L 345.326,366.224 C 345.359,365.74 345.389,365.226 345.418,364.684 C 345.447,364.142 345.472,363.584 345.492,363.009 C 345.513,362.434 345.531,361.851 345.547,361.259 L 345.547,351.849 L 342.862,351.849 L 342.862,369.857 L 346.471,369.857 L 355.278,355.582 L 355.365,355.582 C 355.347,356.001 355.327,356.481 355.302,357.022 C 355.278,357.565 355.256,358.125 355.234,358.704 C 355.214,359.282 355.199,359.843 355.191,360.385 L 355.191,369.857 L 357.89,369.857 L 357.89,351.849 Z" fill="#e6eaf0" marker-start="none" marker-end="none"/>
     <path d="M 367.731,347.859 L 367.731,350.101 C 368.248,350.116 368.694,350.188 369.067,350.316 C 369.441,350.443 369.728,350.657 369.929,350.956 C 370.131,351.256 370.232,351.665 370.231,352.182 L 370.231,355.89 C 370.232,356.703 370.465,357.353 370.933,357.842 C 371.401,358.33 372.092,358.644 373.003,358.784 L 373.003,358.932 C 372.083,359.088 371.39,359.408 370.927,359.893 C 370.463,360.377 370.232,361.026 370.231,361.839 L 370.231,365.559 C 370.232,366.076 370.133,366.485 369.936,366.783 C 369.738,367.084 369.454,367.299 369.08,367.431 C 368.707,367.562 368.256,367.631 367.731,367.64 L 367.731,369.857 C 368.955,369.858 369.944,369.725 370.699,369.463 C 371.455,369.201 372.004,368.797 372.35,368.256 C 372.694,367.714 372.867,367.019 372.867,366.174 L 372.867,362.343 C 372.867,361.785 372.987,361.336 373.224,360.995 C 373.462,360.654 373.812,360.408 374.271,360.256 C 374.731,360.104 375.297,360.028 375.971,360.028 L 375.971,357.7 C 375.297,357.7 374.731,357.622 374.271,357.465 C 373.812,357.31 373.462,357.064 373.224,356.727 C 372.987,356.39 372.867,355.946 372.867,355.397 L 372.867,351.542 C 372.867,350.704 372.691,350.012 372.338,349.466 C 371.985,348.92 371.43,348.516 370.675,348.252 C 369.919,347.99 368.937,347.859 367.731,347.859 Z" fill="#747eec" marker-start="none" marker-end="none"/>
    </g>
   </g>
  </g>
 </g>
</svg>
